HIERARCHY
ROOT Hips
{
    OFFSET   0.000000   0.000000   0.000000
    CHANNELS 6 Xposition Yposition Zposition Zrotation Xrotation Yrotation
    JOINT Chest
    {
        OFFSET   0.000000   8.007230   0.000000
        CHANNELS 3 Zrotation Xrotation Yrotation
        JOINT Chest2
        {
            OFFSET   0.000000  22.077100   0.000000
            CHANNELS 3 Zrotation Xrotation Yrotation
            JOINT Neck
            {
                OFFSET   0.000000  23.254800  -0.000021
                CHANNELS 3 Zrotation Xrotation Yrotation
                JOINT Head
                {
                    OFFSET   0.000000  14.370000   1.956610
                    CHANNELS 3 Zrotation Xrotation Yrotation
                    End Site
                    {
                        OFFSET   0.000000  19.566000   0.000000
                    }
                }
            }
            JOINT LeftCollar
            {
                OFFSET   3.911900  19.017000  -0.467063
                CHANNELS 3 Zrotation Xrotation Yrotation
                JOINT LeftShoulder
                {
                    OFFSET  10.383700   0.000000   0.000000
                    CHANNELS 3 Zrotation Xrotation Yrotation
                    JOINT LeftElbow
                    {
                        OFFSET  26.662100   0.001529   0.000325
                        CHANNELS 3 Zrotation Xrotation Yrotation
                        JOINT LeftWrist
                        {
                            OFFSET  28.869000  -0.000011  -0.000096
                            CHANNELS 3 Zrotation Xrotation Yrotation
                            JOINT LeftFinger0
                            {
                                OFFSET   2.044650  -2.323460   3.252850
                                CHANNELS 3 Zrotation Xrotation Yrotation
                                JOINT LeftFinger01
                                {
                                    OFFSET   3.088130   0.000000   0.000000
                                    CHANNELS 3 Zrotation Xrotation Yrotation
                                    JOINT LeftFinger02
                                    {
                                        OFFSET   2.639460   0.000000   0.000000
                                        CHANNELS 3 Zrotation Xrotation Yrotation
                                        End Site
                                        {
                                            OFFSET   2.582190   0.000000   0.000000
                                        }
                                    }
                                }
                            }
                            JOINT LeftFinger1
                            {
                                OFFSET   8.364480   0.000000   3.252850
                                CHANNELS 3 Zrotation Xrotation Yrotation
                                JOINT LeftFinger11
                                {
                                    OFFSET   4.646930   0.000000   0.000000
                                    CHANNELS 3 Zrotation Xrotation Yrotation
                                    JOINT LeftFinger12
                                    {
                                        OFFSET   2.323460   0.000000   0.000000
                                        CHANNELS 3 Zrotation Xrotation Yrotation
                                        End Site
                                        {
                                            OFFSET   2.273050   0.000000   0.000000
                                        }
                                    }
                                }
                            }
                            JOINT LeftFinger2
                            {
                                OFFSET   8.364480   0.000016   1.078090
                                CHANNELS 3 Zrotation Xrotation Yrotation
                                JOINT LeftFinger21
                                {
                                    OFFSET   5.111620   0.000000   0.000000
                                    CHANNELS 3 Zrotation Xrotation Yrotation
                                    JOINT LeftFinger22
                                    {
                                        OFFSET   2.788160   0.000017   0.000000
                                        CHANNELS 3 Zrotation Xrotation Yrotation
                                        End Site
                                        {
                                            OFFSET   2.727660   0.000000   0.000000
                                        }
                                    }
                                }
                            }
                            JOINT LeftFinger3
                            {
                                OFFSET   7.899780   0.000015  -1.078090
                                CHANNELS 3 Zrotation Xrotation Yrotation
                                JOINT LeftFinger31
                                {
                                    OFFSET   4.646920   0.000000   0.000000
                                    CHANNELS 3 Zrotation Xrotation Yrotation
                                    JOINT LeftFinger32
                                    {
                                        OFFSET   2.323470   0.000000   0.000000
                                        CHANNELS 3 Zrotation Xrotation Yrotation
                                        End Site
                                        {
                                            OFFSET   2.273050   0.000000   0.000000
                                        }
                                    }
                                }
                            }
                            JOINT LeftFinger4
                            {
                                OFFSET   7.435090   0.000000  -3.252850
                                CHANNELS 3 Zrotation Xrotation Yrotation
                                JOINT LeftFinger41
                                {
                                    OFFSET   3.717550   0.000000   0.000000
                                    CHANNELS 3 Zrotation Xrotation Yrotation
                                    JOINT LeftFinger42
                                    {
                                        OFFSET   1.858760   0.000000   0.000000
                                        CHANNELS 3 Zrotation Xrotation Yrotation
                                        End Site
                                        {
                                            OFFSET   1.818440   0.000000   0.000000
                                        }
                                    }
                                }
                            }
                        }
                    }
                }
            }
            JOINT RightCollar
            {
                OFFSET  -3.911900  19.017000  -0.467062
                CHANNELS 3 Zrotation Xrotation Yrotation
                JOINT RightShoulder
                {
                    OFFSET -10.383700   0.000015   0.000000
                    CHANNELS 3 Zrotation Xrotation Yrotation
                    JOINT RightElbow
                    {
                        OFFSET -26.662100   0.001341   0.000385
                        CHANNELS 3 Zrotation Xrotation Yrotation
                        JOINT RightWrist
                        {
                            OFFSET -28.869000   0.000025  -0.000080
                            CHANNELS 3 Zrotation Xrotation Yrotation
                            JOINT RightFinger0
                            {
                                OFFSET  -2.044650  -2.323490   3.252850
                                CHANNELS 3 Zrotation Xrotation Yrotation
                                JOINT RightFinger01
                                {
                                    OFFSET  -3.088130   0.000000   0.000000
                                    CHANNELS 3 Zrotation Xrotation Yrotation
                                    JOINT RightFinger02
                                    {
                                        OFFSET  -2.639460   0.000000   0.000000
                                        CHANNELS 3 Zrotation Xrotation Yrotation
                                        End Site
                                        {
                                            OFFSET  -2.582190   0.000000   0.000000
                                        }
                                    }
                                }
                            }
                            JOINT RightFinger1
                            {
                                OFFSET  -8.364480   0.000000   3.252850
                                CHANNELS 3 Zrotation Xrotation Yrotation
                                JOINT RightFinger11
                                {
                                    OFFSET  -4.646930   0.000000   0.000000
                                    CHANNELS 3 Zrotation Xrotation Yrotation
                                    JOINT RightFinger12
                                    {
                                        OFFSET  -2.323470   0.000000   0.000000
                                        CHANNELS 3 Zrotation Xrotation Yrotation
                                        End Site
                                        {
                                            OFFSET  -2.273050   0.000000   0.000000
                                        }
                                    }
                                }
                            }
                            JOINT RightFinger2
                            {
                                OFFSET  -8.364480   0.000000   1.078090
                                CHANNELS 3 Zrotation Xrotation Yrotation
                                JOINT RightFinger21
                                {
                                    OFFSET  -5.111610   0.000000   0.000000
                                    CHANNELS 3 Zrotation Xrotation Yrotation
                                    JOINT RightFinger22
                                    {
                                        OFFSET  -2.788160   0.000000   0.000000
                                        CHANNELS 3 Zrotation Xrotation Yrotation
                                        End Site
                                        {
                                            OFFSET  -2.727660   0.000000   0.000000
                                        }
                                    }
                                }
                            }
                            JOINT RightFinger3
                            {
                                OFFSET  -7.899780   0.000000  -1.078090
                                CHANNELS 3 Zrotation Xrotation Yrotation
                                JOINT RightFinger31
                                {
                                    OFFSET  -4.646920   0.000000   0.000000
                                    CHANNELS 3 Zrotation Xrotation Yrotation
                                    JOINT RightFinger32
                                    {
                                        OFFSET  -2.323470   0.000000   0.000000
                                        CHANNELS 3 Zrotation Xrotation Yrotation
                                        End Site
                                        {
                                            OFFSET  -2.273050   0.000000   0.000000
                                        }
                                    }
                                }
                            }
                            JOINT RightFinger4
                            {
                                OFFSET  -7.435090   0.000000  -3.252850
                                CHANNELS 3 Zrotation Xrotation Yrotation
                                JOINT RightFinger41
                                {
                                    OFFSET  -3.717550   0.000000   0.000000
                                    CHANNELS 3 Zrotation Xrotation Yrotation
                                    JOINT RightFinger42
                                    {
                                        OFFSET  -1.858770   0.000000   0.000000
                                        CHANNELS 3 Zrotation Xrotation Yrotation
                                        End Site
                                        {
                                            OFFSET  -1.818440   0.000000   0.000000
                                        }
                                    }
                                }
                            }
                        }
                    }
                }
            }
        }
    }
    JOINT LeftHip
    {
        OFFSET   9.783010   0.000000   0.000000
        CHANNELS 3 Zrotation Xrotation Yrotation
        JOINT LeftKnee
        {
            OFFSET   0.000070 -41.789100   0.000028
            CHANNELS 3 Zrotation Xrotation Yrotation
            JOINT LeftAnkle
            {
                OFFSET   0.000087 -41.133200  -0.000100
                CHANNELS 3 Zrotation Xrotation Yrotation
                JOINT LeftToe
                {
                    OFFSET   0.000000  -6.358960  14.674500
                    CHANNELS 3 Zrotation Xrotation Yrotation
                    End Site
                    {
                        OFFSET   0.000000   0.000000   3.913200
                    }
                }
            }
        }
    }
    JOINT RightHip
    {
        OFFSET  -9.783020   0.000000   0.000000
        CHANNELS 3 Zrotation Xrotation Yrotation
        JOINT RightKnee
        {
            OFFSET   0.000044 -41.789100  -0.000870
            CHANNELS 3 Zrotation Xrotation Yrotation
            JOINT RightAnkle
            {
                OFFSET  -0.000090 -41.133200  -0.000245
                CHANNELS 3 Zrotation Xrotation Yrotation
                JOINT RightToe
                {
                    OFFSET   0.000000  -6.358960  14.674500
                    CHANNELS 3 Zrotation Xrotation Yrotation
                    End Site
                    {
                        OFFSET   0.000000   0.000000   3.913200
                    }
                }
            }
        }
    }
}
MOTION
Frames: 5
Frame Time:   0.016667
 -1.499920  90.114800  -1.068480  -0.152222 -14.054300   1.003300  -1.356030   8.773900   1.091310  -2.935730  17.517200   2.438930   3.686550  -0.547652   0.034909   6.052670  -1.084020 -28.941500  -5.363380  -5.241510  -0.945043 -29.511100  33.576600 -65.676000  15.917800  -1.483250 -100.391000  11.048100  14.432300  -9.860940  45.951700  31.098600 -65.861300 -17.996700   0.000802   0.000297  -3.998350   0.002156  -0.000925 -11.390300   2.630400 -12.832800  -9.561400   0.000928   0.003548  -6.692990   0.003004   0.002728 -18.337900   3.168490  -9.466760 -18.600400   0.002060   0.004708 -12.387900  -0.000361   0.003094 -13.604200   1.991540  -8.170810 -13.746500   0.003029   0.004850  -9.155150   0.003794   0.004111 -13.229100   1.794990  -7.588100 -20.022200   0.004468   0.008017 -13.334800  -0.008714   0.007193  12.970000  -1.785820  10.472100  34.900300  21.661900  60.481400 -12.026000  -8.173810  86.659000  -9.350780  18.694800  24.092500 -53.024500  36.539400  66.016500  15.718400   0.000935  -0.000251   2.859170  -0.001476  -0.005651  15.848700   0.249784   0.880170  12.968800   0.000281  -0.007167   9.078150  -0.000518  -0.004625  14.949100   0.146047   0.547373  14.949900   0.002680  -0.002046   9.952530   0.002770  -0.005032  16.504800  -1.102590  -3.715330  16.540700   0.003241  -0.009388  11.016100   0.003633  -0.008189  22.165700  -1.813790  -4.442250  33.354300   0.000908  -0.001178  22.214000  -0.001540  -0.000668   0.517323  13.797000   2.659890   0.274603   1.620140  15.891200  -5.554890  -3.331450   2.745420   0.000000   0.000000   0.000000   2.140440  14.189400  -6.869220  -0.197716   3.173470  -9.069930 -10.616700   0.054588   0.660171  -0.000000   0.000000   0.000000
 -1.480910  90.125200  -1.073790  -0.117316 -14.013000   1.113250  -1.402630   8.783260   1.094080  -3.032530  17.534900   2.457920   3.344150  -0.788923   0.045996   5.498290  -1.588560 -33.886200  -5.249580  -5.233670  -0.932578 -29.618700  33.518700 -65.589500  15.902200  -1.458250 -100.485000  11.093400  14.378900  -9.813870  45.990600  31.082900 -65.861000 -17.921400   0.000791   0.000415  -3.960710   0.002200  -0.000999 -11.402800   2.631090 -12.814400  -9.571300   0.000905   0.003521  -6.699920   0.003043   0.002702 -18.382100   3.158290  -9.413220 -18.642300   0.002035   0.004698 -12.415700  -0.000360   0.003094 -13.627400   1.975440  -8.091690 -13.767200   0.003037   0.004829  -9.168900   0.003793   0.004074 -13.267000   1.776160  -7.487590 -20.074900   0.004437   0.008001 -13.369900  -0.008752   0.007218  12.968600  -1.878910  10.454600  34.895800  21.812200  60.608800 -11.990600  -8.235240  86.559700  -9.239080  18.709200  23.984200 -53.034800  36.566000  66.016000  15.742800   0.001014  -0.000283   2.871390  -0.001475  -0.005719  15.844400   0.238382   0.840337  12.965200   0.000350  -0.007152   9.075650  -0.000485  -0.004595  14.947900   0.133940   0.502055  14.948700   0.002649  -0.001982   9.952930   0.002732  -0.005023  16.504800  -1.116090  -3.760900  16.542300   0.003191  -0.009425  11.017200   0.003666  -0.008240  22.167100  -1.830710  -4.483290  33.359000   0.000918  -0.001204  22.217100  -0.001524  -0.000697   0.515558  13.761900   2.649410   0.280914   1.601870  15.840300  -5.577410  -3.307560   2.705380   0.000000   0.000000  -0.000000   2.124850  14.188300  -6.910560  -0.175230   3.139980  -9.133970 -10.620100   0.043467   0.663784   0.000000   0.000000  -0.000000
 -1.450820  90.132800  -1.076050  -0.088647 -13.973800   1.192260  -1.447410   8.800610   1.094530  -3.123210  17.568400   2.461050   3.020200  -0.985521   0.051946   4.968100  -1.989470 -37.921900  -5.154450  -5.232560  -0.921873 -29.750900  33.449000 -65.475700  15.834500  -1.389570 -100.546000  11.147200  14.341100  -9.779480  46.037500  31.064000 -65.860200 -17.824900   0.000779   0.000533  -3.912450   0.002244  -0.001073 -11.433600   2.634660 -12.804600  -9.596720   0.000882   0.003494  -6.717700   0.003083   0.002677 -18.426000   3.148250  -9.360470 -18.683900   0.002010   0.004690 -12.443400  -0.000358   0.003094 -13.660900   1.960540  -8.011570 -13.798300   0.003045   0.004808  -9.189630   0.003792   0.004038 -13.316700   1.757200  -7.380620 -20.145200   0.004405   0.007985 -13.416700  -0.008790   0.007244  12.963800  -1.968440  10.443100  34.892600  21.976100  60.748100 -12.038000  -8.259720  86.430200  -9.151950  18.721000  23.886100 -53.044100  36.589500  66.016200  15.764900   0.001093  -0.000288   2.882480  -0.001473  -0.005786  15.843000   0.228911   0.806885  12.963900   0.000421  -0.007136   9.074740  -0.000450  -0.004566  14.947900   0.125038   0.468562  14.948500   0.002618  -0.001918   9.955710   0.002695  -0.005014  16.516100  -1.127090  -3.795040  16.553600   0.003140  -0.009462  11.024700   0.003699  -0.008290  22.178500  -1.847250  -4.520960  33.377400   0.000928  -0.001229  22.229300  -0.001507  -0.000728   0.514895  13.727700   2.646100   0.285511   1.588860  15.795800  -5.598690  -3.288260   2.676640  -0.000000   0.000000   0.000000   2.105040  14.188200  -6.948350  -0.152506   3.102710  -9.187290 -10.623100   0.032833   0.676682  -0.000000   0.000000  -0.000000
 -1.403840  90.134700  -1.065820  -0.068828 -13.942200   1.222910  -1.485720   8.819580   1.085510  -3.200110  17.605700   2.447850   2.725120  -1.119190   0.053406   4.526990  -2.246020 -41.179900  -5.100960  -5.260900  -0.913182 -29.925300  33.393300 -65.298300  15.671900  -1.295950 -100.556000  11.207700  14.416600  -9.801300  46.065000  31.010400 -65.827200 -17.729200   0.000800   0.000419  -3.864580   0.002275  -0.001151 -11.482700   2.645060 -12.805300  -9.637900   0.000856   0.003469  -6.746530   0.003123   0.002652 -18.456900   3.134300  -9.307600 -18.712000   0.001986   0.004683 -12.462200  -0.000357   0.003094 -13.723100   1.952260  -7.942110 -13.858700   0.003055   0.004788  -9.229840   0.003791   0.004002 -13.392700   1.740230  -7.272640 -20.254900   0.004371   0.007970 -13.489700  -0.008826   0.007271  12.958400  -2.055040  10.453300  34.886500  22.141900  60.887600 -12.073500  -8.236660  86.294100  -9.061400  18.668300  23.794500 -53.022900  36.590100  65.927700  15.786300   0.001179  -0.000265   2.893160  -0.001471  -0.005857  15.871500   0.207082   0.728836  12.986900   0.000490  -0.007119   9.090850  -0.000415  -0.004536  14.973600   0.107852   0.403543  14.974100   0.002588  -0.001853   9.973920   0.002658  -0.005004  16.552400  -1.152260  -3.870220  16.591100   0.003086  -0.009500  11.049700   0.003734  -0.008341  22.223600  -1.888200  -4.611320  33.448100   0.000937  -0.001255  22.276300  -0.001488  -0.000762   0.511615  13.715400   2.661380   0.287446   1.564760  15.762600  -5.618090  -3.272480   2.661690   0.000000   0.000000   0.000000   2.080740  14.193400  -6.964770  -0.131597   3.068000  -9.225340 -10.625400   0.024848   0.699363   0.000000   0.000000  -0.000000
 -1.347350  90.135000  -1.043180  -0.056563 -13.912600   1.227160  -1.514950   8.837780   1.071830  -3.258390  17.641700   2.427080   2.569700  -1.214160   0.054236   4.227220  -2.444660 -42.743300  -5.083010  -5.312100  -0.909039 -30.114000  33.365000 -65.099900  15.489600  -1.197740 -100.553000  11.270100  14.545700  -9.844150  46.051200  30.949200 -65.796900 -17.673800   0.000821   0.000306  -3.836900   0.002305  -0.001231 -11.539100   2.660630 -12.809400  -9.685480   0.000831   0.003445  -6.779830   0.003163   0.002628 -18.484600   3.125830  -9.264040 -18.738000   0.001961   0.004677 -12.479500  -0.000356   0.003093 -13.795000   1.949350  -7.887240 -13.929500   0.003065   0.004768  -9.277020   0.003791   0.003966 -13.477700   1.731340  -7.184680 -20.379600   0.004338   0.007955 -13.572800  -0.008863   0.007299  12.955600  -2.104570  10.471100  34.874200  22.285800  61.013700 -12.109100  -8.186590  86.166500  -8.935260  18.573000  23.690700 -53.026400  36.584500  65.812900  15.797700   0.001264  -0.000225   2.898880  -0.001468  -0.005930  15.899900   0.184448   0.647956  13.009900   0.000559  -0.007103   9.106960  -0.000380  -0.004507  15.008500   0.090595   0.338262  15.008800   0.002557  -0.001788   9.995860   0.002622  -0.004995  16.590100  -1.177830  -3.946580  16.630700   0.003032  -0.009538  11.076100   0.003768  -0.008392  22.255000  -1.930300  -4.705230  33.501400   0.000946  -0.001283  22.311900  -0.001468  -0.000797   0.506407  13.708400   2.684330   0.285757   1.540660  15.747300  -5.633530  -3.263670   2.657690  -0.000000   0.000000  -0.000000   2.057240  14.197900  -6.974730  -0.114215   3.036620  -9.241780 -10.627000   0.017791   0.734457   0.000000   0.000000   0.000000
